<svg width="1164" height="376" viewBox="0 0 1164 376" fill="none" xmlns="http://www.w3.org/2000/svg">
<path d="M919 2V31H1164V2H919Z" fill="black"/>
<path d="M919 174V203H1164V174H919Z" fill="black"/>
<path d="M919 347V375H1164V347H919Z" fill="black"/>
<path d="M0 326.776C79.7393 393.585 255.074 401.617 270.9 292.697C284.561 198.674 167.581 185.05 108.307 166.442C13.1818 142.891 32.915 57.5476 91.9125 34.5614C141.12 15.3894 190.045 25.8071 244.626 56.7242L258.005 34.5614C228.457 11.8027 155.082 -12.3402 91.9125 7.13871C61.8077 16.4219 33.0443 33.5672 21.4232 71.4412C-34.2392 252.85 314.715 157.194 230.818 318.971C197.941 371.594 62.4911 345.251 19.197 304.928L0 326.776Z" fill="black"/>
<path d="M378 2V374H411V2H378Z" fill="black"/>
<path d="M518 2H814V28.0839H682.676V375H651.93V28.0839H518V2Z" fill="black"/>
</svg>
