<svg width="891" height="404" viewBox="0 0 891 404" fill="none" xmlns="http://www.w3.org/2000/svg">
<rect width="891" height="404" rx="15" fill="#0D1117"/>
<path d="M318.76 228.8C312.307 228.8 307.107 226.693 303.16 222.48L306.04 217.44L306.36 216.72L306.92 217.04C307.027 217.413 307.16 217.84 307.32 218.32C307.48 218.747 307.853 219.28 308.44 219.92C309.827 221.093 311.427 222.027 313.24 222.72C315.107 223.413 317.213 223.76 319.56 223.76C322.547 223.76 325 222.933 326.92 221.28C328.893 219.573 329.88 217.547 329.88 215.2C329.88 213.653 329.56 212.347 328.92 211.28C328.333 210.213 327.213 209.173 325.56 208.16C323.96 207.147 321.587 205.973 318.44 204.64C313.267 202.613 309.693 200.347 307.72 197.84C305.747 195.333 304.76 192.667 304.76 189.84C304.76 186.16 306.12 183.2 308.84 180.96C311.56 178.667 315.267 177.52 319.96 177.52C322.68 177.52 325.24 178.08 327.64 179.2C330.04 180.267 332.093 181.787 333.8 183.76L330.2 188.56L329.72 188.24C329.667 187.813 329.56 187.387 329.4 186.96C329.24 186.533 328.867 186 328.28 185.36C327 184.133 325.64 183.307 324.2 182.88C322.76 182.4 321.053 182.16 319.08 182.16C316.467 182.16 314.387 182.88 312.84 184.32C311.293 185.76 310.52 187.467 310.52 189.44C310.52 190.933 310.84 192.267 311.48 193.44C312.173 194.56 313.4 195.68 315.16 196.8C316.92 197.92 319.48 199.147 322.84 200.48C326.093 201.813 328.627 203.173 330.44 204.56C332.253 205.893 333.533 207.36 334.28 208.96C335.027 210.507 335.4 212.32 335.4 214.4C335.4 216.693 334.813 218.96 333.64 221.2C332.52 223.387 330.733 225.2 328.28 226.64C325.827 228.08 322.653 228.8 318.76 228.8ZM385.48 228V223.28H395.32V182.88H386.04V178.16H410.76V182.88H400.92V223.36H411.24V228H385.48ZM475.64 228V183.12H461.48V178.08H496.04V183.12H481.32V228H475.64ZM543.72 228V178.08H574.28V183.04H549V199.44H569.88V204.56H549V223.04H574.04V228H543.72Z" fill="white"/>
</svg>
